<?xml version="1.0" encoding="utf-8"?>
<!-- Generator: Adobe Illustrator 26.5.0, SVG Export Plug-In . SVG Version: 6.00 Build 0)  -->
<svg version="1.1" id="圖層_1" xmlns="http://www.w3.org/2000/svg" xmlns:xlink="http://www.w3.org/1999/xlink" x="0px" y="0px"
	 viewBox="0 0 18 18" style="enable-background:new 0 0 18 18;" xml:space="preserve">
<style type="text/css">
	.st0{fill:#AF7D4A;}
	.st1{fill:#50302A;}
	.st2{opacity:0.29;}
	.st3{fill:#231815;}
	.st4{fill:#B4834B;}
	.st5{opacity:0.1;}
	.st6{fill:#E5F3F5;}
</style>
<g>
	<g>
		<g>
			<path class="st0" d="M10.18,9.77c0,0,0.46-0.29,0.53-0.31c0,0,0.08,0.1,0.08,0.13c0,0-0.03,0.1-0.08,0.21l0.04,0.03
				c0,0-0.05,0.35,0.22,0.51c0,0,0.28,0.21,0.56,0.15l0.08,0.09l-0.11,0.09l-0.5,0.34L10.18,9.77z"/>
		</g>
		<g>
			<path class="st1" d="M11.88,10.59l-0.09-0.02c-0.09-0.02-0.19,0.01-0.27,0.06l-0.5,0.34c-0.02,0.01-0.02,0.03-0.01,0.04
				l0.18,0.26c0.01,0.02,0.03,0.02,0.04,0.01l0.5-0.34c0.08-0.05,0.13-0.13,0.16-0.23l0.03-0.09C11.91,10.61,11.9,10.59,11.88,10.59
				z"/>
		</g>
		<g>
			<path class="st1" d="M12.08,10.89l-0.09-0.02c-0.09-0.02-0.19,0.01-0.27,0.06l-0.5,0.34c-0.02,0.01-0.02,0.03-0.01,0.04
				l0.18,0.26c0.01,0.02,0.03,0.02,0.04,0.01l0.5-0.34c0.08-0.05,0.13-0.13,0.16-0.23l0.03-0.09C12.11,10.9,12.1,10.89,12.08,10.89z
				"/>
		</g>
		<g>
			<path class="st1" d="M12.29,11.18l-0.09-0.02c-0.09-0.02-0.19,0.01-0.27,0.06l-0.5,0.34c-0.02,0.01-0.02,0.03-0.01,0.04
				l0.18,0.26c0.01,0.02,0.03,0.02,0.04,0.01l0.5-0.34c0.08-0.05,0.13-0.13,0.16-0.23l0.03-0.09C12.31,11.2,12.3,11.18,12.29,11.18z
				"/>
		</g>
		<g>
			<path class="st1" d="M11.59,11.87l0.61-0.41h0.3c0,0,0.18,0.93,0.53,1.36c0,0,1.6,1.71,1.77,1.92c0.17,0.21,1.54,1.85,1.43,2.24
				c0,0,0.02,0.35-0.65,0.79L11.59,11.87z"/>
		</g>
		<g class="st2">
			<path class="st3" d="M10.18,9.77c0,0,0.46-0.29,0.53-0.31c0,0,0.08,0.1,0.08,0.13c0,0-0.03,0.1-0.08,0.21l0.04,0.03
				c0,0-0.05,0.35,0.22,0.51c0,0,0.28,0.21,0.56,0.15l0.08,0.09l-0.11,0.09l-0.5,0.34L10.18,9.77z"/>
		</g>
		<g class="st2">
			<path class="st3" d="M11.89,10.59l-0.09-0.02c-0.09-0.02-0.19,0.01-0.27,0.06l-0.5,0.34c-0.02,0.01-0.02,0.03-0.01,0.04
				l0.18,0.26c0.01,0.02,0.03,0.02,0.04,0.01l0.5-0.34c0.08-0.05,0.13-0.13,0.16-0.23l0.03-0.09
				C11.91,10.61,11.91,10.59,11.89,10.59z"/>
		</g>
		<g class="st2">
			<path class="st3" d="M12.08,10.89l-0.09-0.02c-0.09-0.02-0.19,0.01-0.27,0.06l-0.5,0.34c-0.02,0.01-0.02,0.03-0.01,0.04
				l0.18,0.26c0.01,0.02,0.03,0.02,0.04,0.01l0.5-0.34c0.08-0.05,0.13-0.13,0.16-0.23l0.03-0.09C12.12,10.9,12.1,10.89,12.08,10.89z
				"/>
		</g>
		<g class="st2">
			<path class="st3" d="M12.29,11.18l-0.09-0.02c-0.09-0.02-0.19,0.01-0.27,0.06l-0.5,0.34c-0.02,0.01-0.02,0.03-0.01,0.04
				l0.18,0.26c0.01,0.02,0.03,0.02,0.04,0.01l0.5-0.34c0.08-0.05,0.13-0.13,0.16-0.23l0.03-0.09C12.31,11.2,12.3,11.18,12.29,11.18z
				"/>
		</g>
		<g class="st2">
			<path class="st3" d="M11.59,11.86l0.61-0.41h0.3c0,0,0.18,0.93,0.53,1.36c0,0,1.6,1.71,1.77,1.92c0.17,0.21,1.54,1.85,1.43,2.24
				c0,0,0.02,0.35-0.65,0.79L11.59,11.86z"/>
		</g>
		<g>
			<path class="st4" d="M10.34,9.66c0,0-0.45,0.32-0.49,0.37c0,0,0.07,0.12,0.08,0.13c0,0,0.1,0,0.23,0l0.01,0.05
				c0,0,0.35,0.08,0.4,0.4c0,0,0.09,0.34-0.08,0.58l0.06,0.12l0.13-0.07l0.5-0.34L10.34,9.66z"/>
		</g>
		<g>
			<path class="st1" d="M10.47,11.55l0.03-0.09c0.03-0.09,0.08-0.18,0.16-0.23l0.5-0.34c0.02-0.01,0.03-0.01,0.04,0.01l0.18,0.26
				c0.01,0.02,0.01,0.03-0.01,0.04l-0.5,0.34c-0.08,0.05-0.18,0.08-0.27,0.06l-0.09-0.02C10.47,11.59,10.46,11.57,10.47,11.55z"/>
		</g>
		<g>
			<path class="st1" d="M10.67,11.85l0.03-0.09c0.03-0.09,0.08-0.18,0.16-0.23l0.5-0.34c0.02-0.01,0.03-0.01,0.04,0.01l0.18,0.26
				c0.01,0.02,0.01,0.03-0.01,0.04l-0.5,0.34c-0.08,0.05-0.18,0.08-0.27,0.06l-0.09-0.02C10.67,11.88,10.66,11.86,10.67,11.85z"/>
		</g>
		<g>
			<path class="st1" d="M10.86,12.14l0.03-0.09c0.03-0.09,0.08-0.18,0.16-0.23l0.5-0.34c0.02-0.01,0.03-0.01,0.04,0.01l0.18,0.26
				c0.01,0.02,0.01,0.03-0.01,0.04l-0.5,0.34c-0.08,0.05-0.18,0.08-0.27,0.06l-0.09-0.02C10.87,12.18,10.86,12.16,10.86,12.14z"/>
		</g>
		<g>
			<path class="st1" d="M11.75,11.76l-0.61,0.41l-0.11,0.28c0,0,0.8,0.51,1.06,1c0,0,0.99,2.12,1.12,2.36
				c0.13,0.24,1.15,2.12,1.54,2.16c0,0,0.31,0.14,0.98-0.3L11.75,11.76z"/>
		</g>
	</g>
	<g>
		<g>
			<path class="st0" d="M10.37,9.89c-2.47,1.67-5.84,1.02-7.5-1.46C1.2,5.96,1.85,2.59,4.33,0.92c2.47-1.67,5.84-1.02,7.5,1.46
				C13.5,4.85,12.85,8.22,10.37,9.89z M4.56,1.27C2.28,2.81,1.68,5.92,3.22,8.19c1.54,2.28,4.65,2.88,6.92,1.34s2.88-4.65,1.34-6.92
				C9.94,0.34,6.84-0.26,4.56,1.27z"/>
		</g>
		<g class="st5">
			<circle class="st6" cx="7.35" cy="5.4" r="5.2"/>
		</g>
	</g>
</g>
</svg>
